<?xml version="1.0" encoding="UTF-8" standalone="no"?>
<!-- Created with Inkscape (http://www.inkscape.org/) -->

<svg
   version="1.1"
   id="svg41"
   width="102.32737"
   height="102.32737"
   viewBox="0 0 102.32737 102.32737"
   sodipodi:docname="All_100px.svg"
   inkscape:version="1.1.2 (b8e25be8, 2022-02-05)"
   xmlns:inkscape="http://www.inkscape.org/namespaces/inkscape"
   xmlns:sodipodi="http://sodipodi.sourceforge.net/DTD/sodipodi-0.dtd"
   xmlns="http://www.w3.org/2000/svg"
   xmlns:svg="http://www.w3.org/2000/svg">
  <defs
     id="defs45">
    <inkscape:path-effect
       effect="mirror_symmetry"
       start_point="782.04287,467.84969"
       end_point="782.04287,531.72857"
       center_point="782.04287,499.78913"
       id="path-effect26694"
       is_visible="true"
       lpeversion="1.1"
       mode="free"
       discard_orig_path="false"
       fuse_paths="false"
       oposite_fuse="false"
       split_items="false"
       split_open="false" />
    <inkscape:path-effect
       effect="mirror_symmetry"
       start_point="90.923113,67.597284"
       end_point="90.923113,149.23768"
       center_point="90.923113,108.41748"
       id="path-effect23117"
       is_visible="true"
       lpeversion="1.1"
       mode="free"
       discard_orig_path="false"
       fuse_paths="false"
       oposite_fuse="false"
       split_items="false"
       split_open="false" />
    <inkscape:path-effect
       effect="mirror_symmetry"
       start_point="90.923113,67.597284"
       end_point="90.923113,149.23768"
       center_point="90.923113,108.41748"
       id="path-effect18032"
       is_visible="true"
       lpeversion="1.1"
       mode="free"
       discard_orig_path="false"
       fuse_paths="true"
       oposite_fuse="false"
       split_items="false"
       split_open="false" />
    <inkscape:path-effect
       effect="mirror_symmetry"
       start_point="90.923113,67.597284"
       end_point="90.923113,149.23768"
       center_point="90.923113,108.41748"
       id="path-effect12351"
       is_visible="true"
       lpeversion="1.1"
       mode="free"
       discard_orig_path="false"
       fuse_paths="false"
       oposite_fuse="false"
       split_items="false"
       split_open="false" />
    <inkscape:path-effect
       effect="mirror_symmetry"
       start_point="90.923113,67.597284"
       end_point="90.923113,149.23768"
       center_point="90.923113,108.41748"
       id="path-effect10470"
       is_visible="true"
       lpeversion="1.1"
       mode="free"
       discard_orig_path="false"
       fuse_paths="false"
       oposite_fuse="false"
       split_items="false"
       split_open="false" />
    <inkscape:path-effect
       effect="mirror_symmetry"
       start_point="90.923113,67.597284"
       end_point="90.923113,149.23768"
       center_point="90.923113,108.41748"
       id="path-effect10041"
       is_visible="true"
       lpeversion="1.1"
       mode="free"
       discard_orig_path="false"
       fuse_paths="false"
       oposite_fuse="false"
       split_items="false"
       split_open="false" />
    <inkscape:path-effect
       effect="mirror_symmetry"
       start_point="90.923113,67.597284"
       end_point="90.923113,149.23768"
       center_point="90.923113,108.41748"
       id="path-effect8913"
       is_visible="true"
       lpeversion="1.1"
       mode="free"
       discard_orig_path="false"
       fuse_paths="false"
       oposite_fuse="false"
       split_items="false"
       split_open="false" />
    <inkscape:path-effect
       effect="mirror_symmetry"
       start_point="90.923113,67.597284"
       end_point="90.923113,149.23768"
       center_point="90.923113,108.41748"
       id="path-effect7716"
       is_visible="true"
       lpeversion="1.1"
       mode="free"
       discard_orig_path="false"
       fuse_paths="false"
       oposite_fuse="false"
       split_items="false"
       split_open="false" />
    <inkscape:path-effect
       effect="mirror_symmetry"
       start_point="90.923113,67.597284"
       end_point="90.923113,149.23768"
       center_point="90.923113,108.41748"
       id="path-effect6049"
       is_visible="true"
       lpeversion="1.1"
       mode="free"
       discard_orig_path="false"
       fuse_paths="false"
       oposite_fuse="false"
       split_items="false"
       split_open="false" />
    <inkscape:path-effect
       effect="mirror_symmetry"
       start_point="90.923113,67.597284"
       end_point="90.923113,149.23768"
       center_point="90.923113,108.41748"
       id="path-effect2962"
       is_visible="true"
       lpeversion="1.1"
       mode="free"
       discard_orig_path="false"
       fuse_paths="false"
       oposite_fuse="false"
       split_items="false"
       split_open="false" />
  </defs>
  <sodipodi:namedview
     id="namedview43"
     pagecolor="#505050"
     bordercolor="#eeeeee"
     borderopacity="1"
     inkscape:pageshadow="0"
     inkscape:pageopacity="0"
     inkscape:pagecheckerboard="0"
     showgrid="false"
     inkscape:zoom="2.5767182"
     inkscape:cx="-16.687894"
     inkscape:cy="65.005168"
     inkscape:window-width="954"
     inkscape:window-height="1027"
     inkscape:window-x="0"
     inkscape:window-y="25"
     inkscape:window-maximized="0"
     inkscape:current-layer="layer14" />
  <g
     inkscape:groupmode="layer"
     id="layer18"
     inkscape:label="White Wine Glass"
     transform="translate(-304.4719,-399.45408)">
    <path
       style="display:inline;fill:none;stroke:#000000;stroke-width:2.2;stroke-linecap:round;stroke-linejoin:round;stroke-miterlimit:4;stroke-dasharray:none;stroke-opacity:1"
       d="m 81.046792,74.66608 c -6.562902,26.85376 -5.634851,31.17115 3.389588,38.46744 6.211708,2.77258 5.010468,6.32156 5.058621,11.1122 v 17.35968 c 0,7.76393 -12.632854,4.45788 -12.614987,7.63228 v 0 l 14.043099,-0.23802 m 9.876317,-74.33358 c 6.56291,26.85376 5.63486,31.17115 -3.389584,38.46744 -6.211708,2.77258 -5.010468,6.32156 -5.058621,11.1122 v 17.35968 c 0,7.76393 12.632855,4.45788 12.614985,7.63228 v 0 l -14.043097,-0.23802"
       id="path2958"
       sodipodi:nodetypes="cccsccc"
       inkscape:path-effect="#path-effect2962"
       inkscape:original-d="m 81.046792,74.66608 c -6.562902,26.85376 -5.634851,31.17115 3.389588,38.46744 6.211708,2.77258 5.010468,6.32156 5.058621,11.1122 v 17.35968 c 0,7.76393 -12.632854,4.45788 -12.614987,7.63228 v 0 l 14.043099,-0.23802"
       transform="translate(264.71247,338.66589)" />
  </g>
  <g
     inkscape:groupmode="layer"
     id="layer14"
     inkscape:label="Pousse cafe glass"
     transform="translate(-304.4719,-399.45408)">
    <path
       style="display:inline;fill:none;stroke:#000000;stroke-width:2.2;stroke-linecap:round;stroke-linejoin:round;stroke-miterlimit:4;stroke-dasharray:none;stroke-opacity:1"
       d="m 79.433485,96.935081 c 9.388005,29.824399 5.185452,18.386829 4.811813,25.896159 -0.141777,2.84942 0.298731,3.14731 3.38392,5.479 2.522207,1.9062 1.626212,5.69714 1.781094,9.73974 0,0 -0.116751,5.70837 -1.778463,7.78986 -1.621636,2.03129 -7.046592,0.20195 -7.028725,3.3763 5.315461,-0.10285 5.385416,-0.009 10.488294,-0.0482 M 102.41274,96.935081 c -9.388004,29.824399 -5.185451,18.386829 -4.811812,25.896159 0.141777,2.84942 -0.298731,3.14731 -3.38392,5.479 -2.522207,1.9062 -1.626212,5.69714 -1.781094,9.73974 0,0 0.116751,5.70837 1.778463,7.78986 1.621636,2.03129 7.046593,0.20195 7.028723,3.3763 -5.315459,-0.10285 -5.385414,-0.009 -10.488292,-0.0482"
       id="path10466"
       sodipodi:nodetypes="csscacc"
       inkscape:path-effect="#path-effect10470"
       inkscape:original-d="m 79.433485,96.935081 c 9.388005,29.824399 5.185452,18.386829 4.811813,25.896159 -0.141777,2.84942 0.298731,3.14731 3.38392,5.479 2.522207,1.9062 1.626212,5.69714 1.781094,9.73974 0,0 -0.116751,5.70837 -1.778463,7.78986 -1.621636,2.03129 -7.046592,0.20195 -7.028725,3.3763 5.315461,-0.10285 5.385416,-0.009 10.488294,-0.0482"
       transform="translate(264.71247,327.54216)" />
  </g>
  <g
     inkscape:groupmode="layer"
     id="layer13"
     inkscape:label="Parfait Glass"
     transform="translate(-304.4719,-399.45408)">
    <path
       style="display:inline;fill:none;stroke:#000000;stroke-width:2.20099;stroke-linecap:round;stroke-linejoin:round;stroke-miterlimit:4;stroke-dasharray:none;stroke-opacity:1"
       d="m 77.280595,62.678616 c 1.618379,35.505102 1.023665,46.254124 3.87919,71.789714 0.484537,4.33298 10.407239,1.83317 6.472064,11.37151 -2.179062,2.74046 -9.975619,0.19165 -9.957752,3.36603 5.315461,-0.10285 8.314443,0.001 13.417321,-0.0379 M 104.56563,62.678616 c -1.61838,35.505102 -1.02366,46.254124 -3.87919,71.789714 -0.48454,4.33298 -10.407238,1.83317 -6.472063,11.37151 2.179062,2.74046 9.975623,0.19165 9.957753,3.36603 -5.315462,-0.10285 -8.314444,0.001 -13.417322,-0.0379"
       id="path10037"
       sodipodi:nodetypes="csccc"
       inkscape:path-effect="#path-effect10041"
       inkscape:original-d="m 77.280595,62.678616 c 1.618379,35.505102 1.023665,46.254124 3.87919,71.789714 0.484537,4.33298 10.407239,1.83317 6.472064,11.37151 -2.179062,2.74046 -9.975619,0.19165 -9.957752,3.36603 5.315461,-0.10285 8.314443,0.001 13.417321,-0.0379"
       transform="matrix(0.9988357,0,0,1.0002659,264.81833,344.64735)" />
  </g>
  <g
     inkscape:groupmode="layer"
     id="layer11"
     inkscape:label="Irish Coffee Cup"
     transform="translate(-304.4719,-399.45408)">
    <path
       style="display:inline;fill:none;stroke:#000000;stroke-width:2.20099;stroke-linecap:round;stroke-linejoin:round;stroke-miterlimit:4;stroke-dasharray:none;stroke-opacity:1"
       d="m 76.432721,86.554493 c 4.162002,31.271787 -2.321466,25.553697 0.996416,37.753887 3.053199,7.79725 8.531999,3.71341 10.400602,10.17793 0.429712,2.9323 -1.701229,1.98389 -2.005228,5.32121 -0.105651,3.5915 2.787432,3.40482 1.807338,6.03232 -1.224042,3.28149 -9.975619,0.19165 -9.957752,3.36603 5.315461,-0.10285 8.314443,0.001 13.417321,-0.0379 M 105.41351,86.554493 c -4.16201,31.271787 2.32146,25.553697 -0.99642,37.753887 -3.0532,7.79725 -8.532,3.71341 -10.400603,10.17793 -0.429712,2.9323 1.701229,1.98389 2.005228,5.32121 0.105651,3.5915 -2.787432,3.40482 -1.807338,6.03232 1.224042,3.28149 9.975623,0.19165 9.957753,3.36603 -5.315462,-0.10285 -8.314444,0.001 -13.417322,-0.0379"
       id="path6045"
       sodipodi:nodetypes="ccccscc"
       inkscape:path-effect="#path-effect6049"
       inkscape:original-d="m 76.432721,86.554493 c 4.162002,31.271787 -2.321466,25.553697 0.996416,37.753887 3.053199,7.79725 8.531999,3.71341 10.400602,10.17793 0.429712,2.9323 -1.701229,1.98389 -2.005228,5.32121 -0.105651,3.5915 2.787432,3.40482 1.807338,6.03232 -1.224042,3.28149 -9.975619,0.19165 -9.957752,3.36603 5.315461,-0.10285 8.314443,0.001 13.417321,-0.0379"
       transform="matrix(0.9988357,0,0,1.0002659,264.81833,332.70624)" />
    <path
       style="fill:none;stroke:#000000;stroke-width:2.2;stroke-linecap:round;stroke-linejoin:round;stroke-miterlimit:4;stroke-dasharray:none;stroke-opacity:1"
       d="m 349.28319,445.21223 c 0,0 12.76239,-12.41574 12.70459,4.79025 -0.0498,14.81127 -11.38714,9.34237 -11.38714,9.34237 v 0"
       id="path7015"
       sodipodi:nodetypes="cscc" />
  </g>
</svg>
