<?xml version="1.0" encoding="UTF-8" standalone="no"?>
<!-- Created with Inkscape (http://www.inkscape.org/) -->

<svg
   version="1.1"
   id="svg41"
   width="102.32737"
   height="102.32737"
   viewBox="0 0 102.32737 102.32737"
   sodipodi:docname="irish_coffee_cup.svg"
   inkscape:version="1.1.2 (b8e25be8, 2022-02-05)"
   xmlns:inkscape="http://www.inkscape.org/namespaces/inkscape"
   xmlns:sodipodi="http://sodipodi.sourceforge.net/DTD/sodipodi-0.dtd"
   xmlns="http://www.w3.org/2000/svg"
   xmlns:svg="http://www.w3.org/2000/svg">
  <defs
     id="defs45">
    <inkscape:path-effect
       effect="mirror_symmetry"
       start_point="90.923113,67.597284"
       end_point="90.923113,149.23768"
       center_point="90.923113,108.41748"
       id="path-effect6049"
       is_visible="true"
       lpeversion="1.1"
       mode="free"
       discard_orig_path="false"
       fuse_paths="false"
       oposite_fuse="false"
       split_items="false"
       split_open="false" />
  </defs>
  <sodipodi:namedview
     id="namedview43"
     pagecolor="#505050"
     bordercolor="#eeeeee"
     borderopacity="1"
     inkscape:pageshadow="0"
     inkscape:pageopacity="0"
     inkscape:pagecheckerboard="0"
     showgrid="false"
     inkscape:zoom="2.5767182"
     inkscape:cx="52.974361"
     inkscape:cy="65.005168"
     inkscape:window-width="954"
     inkscape:window-height="1027"
     inkscape:window-x="152"
     inkscape:window-y="60"
     inkscape:window-maximized="0"
     inkscape:current-layer="layer11" />
  <g
     inkscape:groupmode="layer"
     id="layer11"
     inkscape:label="Irish Coffee Cup"
     transform="translate(-304.4719,-399.45408)">
    <g
       id="g384"
       transform="translate(16.406093,-2.2971799)">
      <path
         style="display:inline;fill:none;stroke:#000000;stroke-width:2.20099;stroke-linecap:round;stroke-linejoin:round;stroke-miterlimit:4;stroke-dasharray:none;stroke-opacity:1"
         d="m 76.432721,86.554493 c 4.162002,31.271787 -2.321466,25.553697 0.996416,37.753887 3.053199,7.79725 8.531999,3.71341 10.400602,10.17793 0.429712,2.9323 -1.701229,1.98389 -2.005228,5.32121 -0.105651,3.5915 2.787432,3.40482 1.807338,6.03232 -1.224042,3.28149 -9.975619,0.19165 -9.957752,3.36603 5.315461,-0.10285 8.314443,0.001 13.417321,-0.0379 M 105.41351,86.554493 c -4.16201,31.271787 2.32146,25.553697 -0.99642,37.753887 -3.0532,7.79725 -8.532,3.71341 -10.400603,10.17793 -0.429712,2.9323 1.701229,1.98389 2.005228,5.32121 0.105651,3.5915 -2.787432,3.40482 -1.807338,6.03232 1.224042,3.28149 9.975623,0.19165 9.957753,3.36603 -5.315462,-0.10285 -8.314444,0.001 -13.417322,-0.0379"
         id="path6045"
         sodipodi:nodetypes="ccccscc"
         inkscape:path-effect="#path-effect6049"
         inkscape:original-d="m 76.432721,86.554493 c 4.162002,31.271787 -2.321466,25.553697 0.996416,37.753887 3.053199,7.79725 8.531999,3.71341 10.400602,10.17793 0.429712,2.9323 -1.701229,1.98389 -2.005228,5.32121 -0.105651,3.5915 2.787432,3.40482 1.807338,6.03232 -1.224042,3.28149 -9.975619,0.19165 -9.957752,3.36603 5.315461,-0.10285 8.314443,0.001 13.417321,-0.0379"
         transform="matrix(0.9988357,0,0,1.0002659,246.30512,335.00342)" />
      <path
         style="fill:none;stroke:#000000;stroke-width:2.2;stroke-linecap:round;stroke-linejoin:round;stroke-miterlimit:4;stroke-dasharray:none;stroke-opacity:1"
         d="m 351.10455,440.2266 c 0,0 12.76239,-12.41574 12.70459,4.79025 -0.0498,14.81127 -11.38714,9.34237 -11.38714,9.34237 v 0"
         id="path7015"
         sodipodi:nodetypes="cscc" />
    </g>
  </g>
</svg>
